
        <svg xmlns="http://www.w3.org/2000/svg" xmlns:xlink="http://www.w3.org/1999/xlink" version="1.1" width="3162.1621621621625" 
        height="994.0983164914643" viewBox="0 0 3162.1621621621625 994.0983164914643">
			
			<g transform="scale(8.108108108108109) translate(10, 10)">
				<defs id="SvgjsDefs14472"><linearGradient id="SvgjsLinearGradient14479"><stop id="SvgjsStop14480" stop-color="#2d388a" offset="0"></stop><stop id="SvgjsStop14481" stop-color="#00aeef" offset="1"></stop></linearGradient><linearGradient id="SvgjsLinearGradient14482"><stop id="SvgjsStop14483" stop-color="#2d388a" offset="0"></stop><stop id="SvgjsStop14484" stop-color="#00aeef" offset="1"></stop></linearGradient></defs><g id="SvgjsG14473" featureKey="monogramFeature-0" transform="matrix(2.442987119855887,0,0,2.442987119855887,-5.863169320635536,-43.973763497777824)" fill="url(#SvgjsLinearGradient14479)"><path d="M12.48 42.78 l0 -7.56 l6.72 0 l0 -17.22 l7.56 0 l0 24.78 l-14.28 0 z M2.4 60 l0 -42 l7.56 0 l0 42 l-7.56 0 z M19.2 60 l0 -14.7 l7.56 0 l0 14.7 l-7.56 0 z M24.0135 49.92 l0 -31.92 l7.56 0 l0 31.92 l-7.56 0 z M24.0135 60 l0 -7.56 l7.56 0 l0 7.56 l-7.56 0 z M34.093500000000006 60 l0 -7.56 l9.24 0 l0 7.56 l-9.24 0 z"></path></g><g id="SvgjsG14474" featureKey="nameFeature-0" transform="matrix(0.8958279590399287,0,0,0.8958279590399287,118.55871258575951,12.670699774282411)" fill="url(#SvgjsLinearGradient14482)"><path d="M31.76 38.68 c0.32 0.04 0.08 1.32 -0.24 1.32 l-10.72 0 c-0.32 0 -0.56 -1.28 -0.24 -1.32 c2.04 -0.28 3.36 -1.04 3.36 -3.6 l0 -7 c-0.2 -0.68 -1.04 -0.68 -1.8 -0.68 l-10.72 0 c-0.76 0 -1.6 0 -1.8 0.68 l0 7 c0 2.8 1.6 3.36 3.32 3.6 c0.32 0.04 0.08 1.32 -0.24 1.32 l-10.68 0 c-0.32 0 -0.56 -1.28 -0.24 -1.32 c2 -0.28 3.36 -1.04 3.36 -3.6 l0 -18.2 c0 -2.52 -1.36 -3.32 -3.36 -3.6 c-0.32 -0.04 -0.08 -1.28 0.24 -1.28 l10.68 0 c0.32 0 0.56 1.24 0.24 1.28 c-1.72 0.24 -3.32 0.8 -3.32 3.6 l0 7.48 c0.2 0.68 1.04 0.68 1.8 0.68 l10.72 0 c0.76 0 1.6 0 1.8 -0.68 l0 -7.48 c0 -2.52 -1.32 -3.32 -3.36 -3.6 c-0.32 -0.04 -0.08 -1.28 0.24 -1.28 l10.72 0 c0.32 0 0.56 1.24 0.24 1.28 c-1.76 0.24 -3.36 0.8 -3.36 3.6 l0 18.2 c0 2.8 1.6 3.36 3.36 3.6 z M68.32000000000001 38.68 c0.56 0.08 0.4 1.32 -0.08 1.32 l-10.28 0 c-0.52 0 -0.56 -1.24 -0.12 -1.32 c1.52 -0.28 3.08 -0.84 1.6 -4.28 l-0.52 -1.2 c-0.4 -0.92 -1.16 -1 -2.4 -1 l-8.24 0 c-1.2 0 -1.96 0.08 -2.32 1 l-0.48 1.2 c-1.44 3.48 0.08 4 2.04 4.28 c0.48 0.08 0.4 1.32 -0.12 1.32 l-8.56 0 c-0.48 0 -0.6 -1.24 -0.12 -1.32 c1.64 -0.28 2.6 -0.88 4.12 -4.28 l6.76 -15.48 c1.56 -3.52 2.04 -5.2 2.04 -6.72 c0 -0.24 2.8 -0.88 2.92 -0.6 l9.76 22.76 c1.44 3.44 2.4 4.08 4 4.32 z M56.400000000000006 30.08 c0.56 0 1.2 -0.08 0.96 -0.64 l-4.88 -11.64 l-4.92 11.64 c-0.24 0.56 0.4 0.64 0.96 0.64 l7.88 0 z M74.96000000000001 40.08 c-0.4 0.04 -0.56 -1.28 -0.24 -1.36 c2.32 -0.6 4.16 -0.96 4.16 -3.92 l0 -17.92 c0 -2.8 -1.68 -3.36 -3.4 -3.6 c-0.32 -0.04 -0.08 -1.28 0.2 -1.28 l10.76 0 c0.32 0 0.52 1.24 0.24 1.28 c-1.72 0.24 -3.32 0.8 -3.32 3.6 l0 17.92 c0 2.28 1 3.08 4.4 3.08 c6.24 0 8.48 -2.68 9.44 -4.28 c0.32 -0.48 1.32 -0.28 1.32 0.4 c0 2.12 -1.68 6.08 -4.16 6.08 c-2.12 -0.12 -4.48 -0.24 -7.84 -0.24 c-3.72 0 -7.88 -0.12 -11.56 0.24 z M105 40.08 c-0.4 0.04 -0.56 -1.28 -0.24 -1.36 c2.32 -0.6 4.16 -0.96 4.16 -3.92 l0 -17.84 c0 -2.6 -1.68 -3.32 -3.4 -3.72 c-0.32 -0.08 -0.12 -1.36 0.2 -1.32 c2.96 0.28 7.64 0.24 10.32 0.24 c3.64 0 6.32 -0.16 9.52 -0.24 c0.96 0 0.96 0.64 0.76 1.56 l-0.96 3.76 c-0.12 0.56 -1.12 0.56 -1.28 0 c-0.6 -1.92 -1.8 -3.12 -6.84 -3.12 c-2.92 0 -3.84 0.72 -3.84 2.88 l0 6.96 c0 1.04 0.52 1.24 1.32 1.24 l0.84 0 c3.36 0 6.12 -0.28 7.8 -1.84 c0.4 -0.36 1.28 -0.28 0.92 0.48 l-2.32 5.04 c-0.28 0.68 -0.88 0.6 -1.32 0.04 c-0.92 -1.28 -3 -1.8 -5.4 -1.8 l-0.52 0 c-0.8 0 -1.32 0.2 -1.32 1.24 l0 6.44 c0 2.96 1.88 3.24 5.12 3.92 c0.36 0.08 0.16 1.4 -0.24 1.36 c-2.76 -0.2 -4.92 -0.24 -7.12 -0.24 s-4.28 0.04 -6.16 0.24 z M169.16 38.68 c0.32 0.04 0.08 1.32 -0.2 1.32 l-10.12 0 c-0.28 0 -0.48 -1.28 -0.24 -1.32 c1.6 -0.24 2.88 -1 2.76 -3.6 l-0.72 -13.88 l-6.76 13.64 c-0.76 1.6 -1.44 3.4 -1.56 4.08 c-0.08 0.48 -0.84 0.72 -1.44 0.72 s-0.96 -0.24 -1.2 -0.72 l-9.36 -17.8 l-0.6 13.96 c-0.12 2.76 1.4 3.44 2.76 3.6 c0.32 0.04 0.08 1.32 -0.24 1.32 l-8.12 0 c-0.32 0 -0.56 -1.28 -0.24 -1.32 c1.72 -0.2 3.2 -0.8 3.36 -3.6 l1.24 -23.04 c0.04 -0.64 1.48 -0.68 1.84 0 l11.64 21.84 l10.8 -21.84 c0.32 -0.68 1.8 -0.64 1.84 0.04 l1.28 23 c0.12 2.8 1.56 3.4 3.28 3.6 z M205.72000000000003 38.68 c0.56 0.08 0.4 1.32 -0.08 1.32 l-10.28 0 c-0.52 0 -0.56 -1.24 -0.12 -1.32 c1.52 -0.28 3.08 -0.84 1.6 -4.28 l-0.52 -1.2 c-0.4 -0.92 -1.16 -1 -2.4 -1 l-8.24 0 c-1.2 0 -1.96 0.08 -2.32 1 l-0.48 1.2 c-1.44 3.48 0.08 4 2.04 4.28 c0.48 0.08 0.4 1.32 -0.12 1.32 l-8.56 0 c-0.48 0 -0.6 -1.24 -0.12 -1.32 c1.64 -0.28 2.6 -0.88 4.12 -4.28 l6.76 -15.48 c1.56 -3.52 2.04 -5.2 2.04 -6.72 c0 -0.24 2.8 -0.88 2.92 -0.6 l9.76 22.76 c1.44 3.44 2.4 4.08 4 4.32 z M193.8 30.08 c0.56 0 1.2 -0.08 0.96 -0.64 l-4.88 -11.64 l-4.92 11.64 c-0.24 0.56 0.4 0.64 0.96 0.64 l7.88 0 z M239 40.4 c-0.64 0 -1 -0.28 -1.44 -0.76 l-19.12 -20.28 l0 15.64 c0 2.68 1.6 3.16 3.8 3.68 c0.32 0.08 0.16 1.32 -0.24 1.32 l-9.28 0 c-0.32 0 -0.56 -1.2 -0.2 -1.32 c1.76 -0.52 3.32 -0.92 3.32 -3.68 l0 -15.68 c0 -2.72 -0.4 -4.2 -1.56 -5.64 c-0.32 -0.4 -0.64 -0.72 -0.64 -0.84 c0 -0.36 0.24 -0.84 0.76 -0.84 l2.88 0 c0.4 0 0.68 0.04 0.96 0.36 l18.72 20.08 l0 -15.48 c0 -2.84 -1.76 -3.16 -3.76 -3.68 c-0.32 -0.08 -0.16 -1.28 0.24 -1.28 l9.24 0 c0.36 0 0.56 1.2 0.24 1.28 c-1.8 0.52 -3.32 0.84 -3.32 3.68 l0 15.72 c0 2.56 0.08 5.48 0.48 6.96 c0.16 0.6 -0.48 0.76 -1.08 0.76 z M276.6 40.4 c-0.64 0 -1 -0.28 -1.44 -0.76 l-19.12 -20.28 l0 15.64 c0 2.68 1.6 3.16 3.8 3.68 c0.32 0.08 0.16 1.32 -0.24 1.32 l-9.28 0 c-0.32 0 -0.56 -1.2 -0.2 -1.32 c1.76 -0.52 3.32 -0.92 3.32 -3.68 l0 -15.68 c0 -2.72 -0.4 -4.2 -1.56 -5.64 c-0.32 -0.4 -0.64 -0.72 -0.64 -0.84 c0 -0.36 0.24 -0.84 0.76 -0.84 l2.88 0 c0.4 0 0.68 0.04 0.96 0.36 l18.72 20.08 l0 -15.48 c0 -2.84 -1.76 -3.16 -3.76 -3.68 c-0.32 -0.08 -0.16 -1.28 0.24 -1.28 l9.24 0 c0.36 0 0.56 1.2 0.24 1.28 c-1.8 0.52 -3.32 0.84 -3.32 3.68 l0 15.72 c0 2.56 0.08 5.48 0.48 6.96 c0.16 0.6 -0.48 0.76 -1.08 0.76 z"></path></g><g id="SvgjsG14475" featureKey="sloganFeature-0" transform="matrix(0.8955117012563345,0,0,0.8955117012563345,120.72540031296997,54.53440613182835)" fill="#000000"><path d="M2.54 18.76 l0 -10.76 c0 -0.42 0.32 -0.64 0.64 -0.64 s0.66 0.22 0.66 0.64 l0 10.06 l3.98 0 c0.44 0 0.68 0.34 0.68 0.68 s-0.24 0.66 -0.68 0.66 l-4.62 0 c-0.4 0 -0.66 -0.32 -0.66 -0.64 z M18.252000000000002 15.86 l0 -4.96 c0 -2.4 1.24 -3.68 3.64 -3.68 l0.52 0 c2.38 0 3.64 1.28 3.64 3.68 l0 4.96 c0 2.2 -1.46 3.64 -3.64 3.64 l-0.52 0 c-2.22 0 -3.64 -1.46 -3.64 -3.64 z M21.892000000000003 18.16 l0.52 0 c1.44 0 2.3 -0.9 2.3 -2.3 l0 -4.96 c0 -1.56 -0.76 -2.36 -2.3 -2.36 l-0.52 0 c-1.52 0 -2.36 0.82 -2.36 2.36 l0 4.96 c0 1.46 0.92 2.3 2.36 2.3 z M36.604 15.879999999999999 l0 -4.82 c0 -2.88 1.58 -3.74 3.9 -3.74 c1.92 0 3.78 0.98 3.78 3 c0 0.44 -0.32 0.66 -0.66 0.66 s-0.68 -0.22 -0.68 -0.66 c0 -1.02 -1.12 -1.7 -2.44 -1.7 c-1.82 0 -2.58 0.74 -2.58 2.44 l0 4.82 c0 1.74 0.96 2.28 2.58 2.28 c1.92 0 2.6 -0.92 2.6 -2.7 l0 -0.84 l-1.8 0 c-0.42 0 -0.64 -0.32 -0.64 -0.66 s0.22 -0.68 0.64 -0.68 l2.5 0 c0.4 0 0.62 0.4 0.62 0.68 l0 1.5 c0 2.88 -1.12 4 -3.92 4 c-2.64 0 -3.9 -0.96 -3.9 -3.58 z M55.136 18.78 l0 -10.78 c0 -0.42 0.32 -0.64 0.64 -0.64 s0.66 0.22 0.66 0.64 l0 10.78 c0 0.86 -1.3 0.86 -1.3 0 z M67.14800000000001 17.68 c-0.44 -0.82 0.68 -1.42 1.2 -0.6 c0.26 0.42 1.04 1.14 2.28 1.14 c0.52 0 1.82 -0.38 2 -1.86 c0.12 -0.9 -0.74 -1.78 -2.22 -2.52 c-2.08 -0.98 -3.66 -1.84 -3.66 -3.56 c0 -2.04 1.72 -3 3.56 -3 c1.66 0 2.58 1.02 2.9 1.54 c0.46 0.74 -0.54 1.46 -1.1 0.74 c-0.28 -0.36 -0.82 -0.96 -1.8 -0.96 c-1.1 0 -2.24 0.52 -2.24 1.68 c0 0.92 1.02 1.44 2.54 2.16 c1.78 0.88 3.64 1.74 3.36 4.08 c-0.22 1.84 -1.62 3.02 -3.34 3.02 c-1.3 0 -2.9 -0.7 -3.48 -1.86 z M84.06000000000002 7.359999999999999 l6.04 0 c0.42 0 0.62 0.34 0.62 0.68 s-0.2 0.66 -0.62 0.66 l-2.28 0 l0 10.06 c0 0.42 -0.34 0.64 -0.68 0.64 s-0.66 -0.22 -0.66 -0.64 l0 -10.06 l-2.42 0 c-0.42 0 -0.62 -0.32 -0.62 -0.66 s0.2 -0.68 0.62 -0.68 z M100.95200000000001 18.78 l0 -10.78 c0 -0.42 0.32 -0.64 0.64 -0.64 s0.66 0.22 0.66 0.64 l0 10.78 c0 0.86 -1.3 0.86 -1.3 0 z M116.88400000000001 7.32 c1.82 0 3.76 0.7 3.76 2.76 c0 0.48 -0.32 0.7 -0.66 0.7 s-0.7 -0.24 -0.7 -0.7 c0 -0.16 -0.1 -1.46 -2.4 -1.46 c-1.82 0 -2.62 0.72 -2.62 2.44 l0 4.82 c0 1.74 0.98 2.28 2.62 2.28 c1.66 0 2.58 -0.68 2.58 -2.3 c0 -0.46 0.34 -0.68 0.66 -0.68 c0.34 0 0.66 0.22 0.66 0.68 c0 2.7 -1.5 3.6 -3.9 3.6 c-2.6 0 -3.92 -0.96 -3.92 -3.58 l0 -4.82 c0 -2.84 1.42 -3.74 3.92 -3.74 z M131.236 17.68 c-0.44 -0.82 0.68 -1.42 1.2 -0.6 c0.26 0.42 1.04 1.14 2.28 1.14 c0.52 0 1.82 -0.38 2 -1.86 c0.12 -0.9 -0.74 -1.78 -2.22 -2.52 c-2.08 -0.98 -3.66 -1.84 -3.66 -3.56 c0 -2.04 1.72 -3 3.56 -3 c1.66 0 2.58 1.02 2.9 1.54 c0.46 0.74 -0.54 1.46 -1.1 0.74 c-0.28 -0.36 -0.82 -0.96 -1.8 -0.96 c-1.1 0 -2.24 0.52 -2.24 1.68 c0 0.92 1.02 1.44 2.54 2.16 c1.78 0.88 3.64 1.74 3.36 4.08 c-0.22 1.84 -1.62 3.02 -3.34 3.02 c-1.3 0 -2.9 -0.7 -3.48 -1.86 z M161.74 15.879999999999999 l0 -4.82 c0 -2.88 1.58 -3.74 3.9 -3.74 c1.92 0 3.78 0.98 3.78 3 c0 0.44 -0.32 0.66 -0.66 0.66 s-0.68 -0.22 -0.68 -0.66 c0 -1.02 -1.12 -1.7 -2.44 -1.7 c-1.82 0 -2.58 0.74 -2.58 2.44 l0 4.82 c0 1.74 0.96 2.28 2.58 2.28 c1.92 0 2.6 -0.92 2.6 -2.7 l0 -0.84 l-1.8 0 c-0.42 0 -0.64 -0.32 -0.64 -0.66 s0.22 -0.68 0.64 -0.68 l2.5 0 c0.4 0 0.62 0.4 0.62 0.68 l0 1.5 c0 2.88 -1.12 4 -3.92 4 c-2.64 0 -3.9 -0.96 -3.9 -3.58 z M188.872 18.76 l0 -8.92 l-3.18 9 c-0.18 0.5 -0.84 0.62 -1.04 0 l-3.08 -9 l0 8.92 c0 0.42 -0.32 0.64 -0.66 0.64 s-0.68 -0.22 -0.68 -0.64 l0 -10.74 c0 -0.38 0.28 -0.66 0.68 -0.66 l0.64 0 c0.44 0 0.68 0.32 0.78 0.62 c0.96 2.86 1.84 5.4 2.82 8.28 l2.9 -8.34 c0.1 -0.28 0.28 -0.56 0.7 -0.56 l0.8 0 c0.58 0 0.66 0.32 0.66 0.64 l0 10.76 c0 0.42 -0.34 0.64 -0.68 0.64 s-0.66 -0.22 -0.66 -0.64 z  M201.204 18.72 l0 -10.72 c0 -0.32 0.16 -0.64 0.6 -0.64 l2.62 0 c1.98 0 3.06 0.72 3.06 2.72 c0 0.8 -0.1 1.58 -0.6 2.12 c1.14 0.8 1.34 2.18 1.34 3.58 c0 2.46 -1.34 3.62 -3.64 3.62 l-2.68 0 c-0.34 0 -0.7 -0.12 -0.7 -0.68 z M202.544 18.08 l1.74 0 c1.66 0 2.58 -0.68 2.58 -2.3 c0 -1.66 -0.42 -2.78 -2.04 -2.78 l-2.28 0 l0 5.08 z M206.16400000000002 10.08 c0 -1.2 -0.84 -1.38 -1.74 -1.38 l-1.88 0 l0 2.96 l1.84 0 c1.26 0 1.78 -0.36 1.78 -1.58 z M218.696 18.76 l0 -10.76 c0 -0.42 0.32 -0.62 0.66 -0.62 s0.68 0.2 0.68 0.62 l0 4.58 l4.54 0 l0 -4.58 c0 -0.42 0.32 -0.64 0.64 -0.64 s0.66 0.22 0.66 0.64 l0 10.76 c0 0.42 -0.34 0.64 -0.66 0.64 s-0.64 -0.22 -0.64 -0.64 l0 -4.82 l-4.54 0 l0 4.82 c0 0.42 -0.34 0.64 -0.68 0.64 s-0.66 -0.22 -0.66 -0.64 z"></path></g>
			</g>
		</svg>
	